<svg xmlns="http://www.w3.org/2000/svg" width="128" height="128" viewBox="0 0 100 100">
  <defs>
    <linearGradient id="bg" x1="0" y1="0" x2="1" y2="1">
      <stop offset="0" stop-color="#232327"/>
      <stop offset="1" stop-color="#18181B"/>
    </linearGradient>
  </defs>
  <rect x="4" y="4" width="92" height="92" rx="22" fill="url(#bg)"/>
  <path d="M 42.96 -0.28 q 0 -0.14 0.12 -0.14 q 0.12 0 0.12 0.14" fill="none" stroke="#FFFFFF" stroke-width="2.42" stroke-linecap="round"/><path d="M 57.04 -0.28 q 0 -0.14 0.12 -0.14 q 0.12 0 0.12 0.14" fill="none" stroke="#FFFFFF" stroke-width="2.42" stroke-linecap="round"/><circle cx="64.96000000000001" cy="-0.42" r="3.3" fill="#FFFFFF"/>
  <path d="M 28.0 67.0 Q 28.0 41.4 33.28 39.0 L 66.72 39.0 Q 72.0 41.4 72.0 67.0 Q 72.0 73.0 66.0 73.0 L 34.0 73.0 Q 28.0 73.0 28.0 67.0 Z" fill="#F2720C"/><path d="M 72.0 45.8 A 9.520000000000001 9.520000000000001 0 0 1 72.0 64.84" fill="none" stroke="#F2720C" stroke-width="3.08" stroke-linecap="round"/>
</svg>